<svg xmlns="http://www.w3.org/2000/svg" width="20" height="20" viewBox="0 0 20 20" fill="none"><g clip-path="url(#clip0_6_39)"><path d="M9.975 18.3333C14.5775 18.3333 18.3083 14.6025 18.3083 10C18.3083 5.3975 14.5775 1.66667 9.975 1.66667C5.3725 1.66667 1.64166 5.3975 1.64166 10C1.64166 14.6025 5.3725 18.3333 9.975 18.3333Z" stroke="white" stroke-width="1.5" stroke-linecap="round" stroke-linejoin="round"></path><path d="M7.28334 10.1917V8.8C7.28334 7.06667 8.50834 6.35833 10.0083 7.225L11.2167 7.925L12.425 8.625C13.925 9.49167 13.925 10.9083 12.425 11.775L11.2167 12.475L10.0083 13.175C8.50834 14.0417 7.28334 13.3333 7.28334 11.6V10.1917Z" stroke="white" stroke-width="1.5" stroke-miterlimit="10" stroke-linecap="round" stroke-linejoin="round"></path></g><defs><clipPath id="clip0_6_39"><rect width="20" height="20" fill="white"></rect></clipPath></defs></svg>